<?xml version="1.0" encoding="utf-8"?>
<!-- Generator: Adobe Illustrator 26.5.0, SVG Export Plug-In . SVG Version: 6.00 Build 0)  -->
<svg version="1.1" id="Ebene_1" xmlns="http://www.w3.org/2000/svg" xmlns:xlink="http://www.w3.org/1999/xlink" x="0px" y="0px"
	 viewBox="0 0 30 30" style="enable-background:new 0 0 30 30;" xml:space="preserve">
<style type="text/css">
	.st0{fill:#FFFFFF;}
</style>
<path class="st0" d="M24.2,4h-18c-1.1,0-2,0.9-2,2v18c0,1.1,0.9,2,2,2h10v-9h-3v-3h3v-1.6c0-3.1,1.5-4.4,4-4.4
	c1.2,0,1.9,0.1,2.2,0.1V11h-1.7c-1.1,0-1.5,0.6-1.5,1.7V14h3.2L22,17h-2.7v9h5c1.1,0,2-0.9,2-2V6C26.2,4.9,25.3,4,24.2,4z"/>
</svg>
